<svg width="25" height="24" viewBox="0 0 25 24" fill="none" xmlns="http://www.w3.org/2000/svg">
<path d="M12.1981 2.16218C15.4173 2.16218 15.7986 2.17418 17.0703 2.23189C17.8349 2.24121 18.5923 2.38094 19.3095 2.64502C19.8296 2.84463 20.3019 3.15042 20.696 3.54269C21.0902 3.93496 21.3974 4.40502 21.598 4.92262C21.8634 5.63637 22.0038 6.39011 22.0131 7.15109C22.0705 8.41674 22.0832 8.79615 22.0832 12C22.0832 15.2038 22.0711 15.5833 22.0131 16.8489C22.0038 17.6099 21.8634 18.3636 21.598 19.0774C21.3974 19.595 21.0902 20.065 20.696 20.4573C20.3019 20.8496 19.8296 21.1554 19.3095 21.355C18.5923 21.6191 17.8349 21.7588 17.0703 21.7681C15.7992 21.8252 15.4179 21.8378 12.1981 21.8378C8.97833 21.8378 8.5971 21.8258 7.32595 21.7681C6.56132 21.7588 5.80396 21.6191 5.08679 21.355C4.5667 21.1554 4.09438 20.8496 3.70023 20.4573C3.30608 20.065 2.99882 19.595 2.79825 19.0774C2.5329 18.3636 2.3925 17.6099 2.38314 16.8489C2.32573 15.5833 2.3131 15.2038 2.3131 12C2.3131 8.79615 2.32516 8.41674 2.38314 7.15109C2.3925 6.39011 2.5329 5.63637 2.79825 4.92262C2.99882 4.40502 3.30608 3.93496 3.70023 3.54269C4.09438 3.15042 4.5667 2.84463 5.08679 2.64502C5.80396 2.38094 6.56132 2.24121 7.32595 2.23189C8.59767 2.17475 8.9789 2.16218 12.1981 2.16218ZM12.1981 0C8.92551 0 8.51327 0.0137136 7.22719 0.0719965C6.22649 0.0918058 5.23641 0.280376 4.29906 0.629684C3.49497 0.931193 2.76667 1.40368 2.16497 2.01419C1.55098 2.61323 1.07582 3.33847 0.772671 4.13923C0.421686 5.0721 0.232211 6.05745 0.212307 7.05338C0.154893 8.33217 0.141113 8.74244 0.141113 11.9994C0.141113 15.2564 0.154893 15.6667 0.213455 16.9466C0.23336 17.9425 0.422834 18.9279 0.77382 19.8608C1.07663 20.6614 1.55139 21.3867 2.16497 21.9858C2.767 22.5965 3.49571 23.069 4.30021 23.3703C5.23755 23.7196 6.22764 23.9082 7.22834 23.928C8.51442 23.9851 8.92494 24 12.1993 24C15.4736 24 15.8841 23.9863 17.1702 23.928C18.1709 23.9082 19.161 23.7196 20.0983 23.3703C20.899 23.0614 21.6261 22.5896 22.2331 21.9851C22.8402 21.3806 23.3137 20.6567 23.6236 19.8596C23.9746 18.9268 24.164 17.9414 24.1839 16.9455C24.2414 15.6667 24.2551 15.2564 24.2551 11.9994C24.2551 8.74244 24.2414 8.33217 24.1828 7.05224C24.1629 6.05631 23.9734 5.07096 23.6224 4.13809C23.3196 3.33743 22.8449 2.6122 22.2313 2.01305C21.6293 1.4024 20.9005 0.929903 20.096 0.628541C19.1587 0.279233 18.1686 0.0906631 17.1679 0.0708538C15.883 0.0137137 15.4707 0 12.1981 0Z" fill="#12132D"/>
<path d="M12.196 5.83777C10.9714 5.83777 9.77431 6.19916 8.75611 6.87625C7.73791 7.55334 6.94433 8.51571 6.4757 9.64167C6.00708 10.7676 5.88446 12.0066 6.12337 13.2019C6.36227 14.3972 6.95196 15.4952 7.81787 16.3569C8.68377 17.2187 9.787 17.8056 10.988 18.0434C12.1891 18.2811 13.434 18.1591 14.5654 17.6927C15.6967 17.2263 16.6637 16.4365 17.3441 15.4232C18.0244 14.4098 18.3875 13.2185 18.3875 11.9998C18.3875 10.3655 17.7352 8.79817 16.5741 7.64258C15.4129 6.48698 13.8381 5.83777 12.196 5.83777ZM12.196 15.9996C11.4011 15.9996 10.624 15.765 9.96312 15.3255C9.3022 14.886 8.78707 14.2613 8.48288 13.5304C8.1787 12.7996 8.09911 11.9953 8.25418 11.2194C8.40925 10.4436 8.79203 9.73085 9.3541 9.17147C9.91616 8.61209 10.6323 8.23114 11.4119 8.07681C12.1915 7.92247 12.9996 8.00168 13.734 8.30442C14.4683 8.60715 15.096 9.11982 15.5376 9.77759C15.9793 10.4354 16.215 11.2087 16.215 11.9998C16.215 13.0606 15.7915 14.0779 15.0378 14.8281C14.2841 15.5782 13.2619 15.9996 12.196 15.9996Z" fill="#12132D"/>
<path d="M18.633 7.03407C19.4321 7.03407 20.0798 6.38939 20.0798 5.59414C20.0798 4.79888 19.4321 4.15421 18.633 4.15421C17.8339 4.15421 17.1862 4.79888 17.1862 5.59414C17.1862 6.38939 17.8339 7.03407 18.633 7.03407Z" fill="#12132D"/>
</svg>
