<svg width="1170" height="550" viewBox="0 0 1170 550" fill="none" xmlns="http://www.w3.org/2000/svg">
<rect width="1170" height="550" rx="32" fill="#12132D"/>
<path d="M1088.52 267.653C1115.02 248.031 1170 266.826 1170 299.8V518C1170 535.673 1155.67 550 1138 550H32C14.3269 550 0 535.673 0 518V374.733C0 353.888 25.2146 341.573 43.6437 351.315C96.7381 379.3 162.964 390.52 225.476 382.101C290.986 373.293 349.22 344.504 408.168 319.771C467.115 295.038 532.308 273.409 598.096 280.705C650.807 286.553 697.54 310.299 747.804 324.413C831.494 347.909 926.56 343.58 1006.46 312.634C1036.39 301.044 1064.05 285.77 1088.52 267.653Z" fill="#9DCFEA" fill-opacity="0.07"/>
<path d="M1135.64 295.324C1154.22 295.445 1170 310.061 1170 328.639V516.918C1170 534.592 1155.67 548.918 1138 548.918H32C14.3269 548.918 0 534.592 0 516.918V396.402C0 376.605 17.8943 361.703 37.6885 361.333C44.7445 361.201 51.7941 360.707 58.7808 359.849C111.633 353.213 157.307 330.653 203.465 311.135C249.622 291.617 301.758 274.17 354.915 279.424C444.012 288.226 510.884 358.113 600.36 351.565C662.138 347.037 705.886 307.422 761.411 287.591C825.282 264.773 901.234 269.408 971.521 278.513C1025.88 285.55 1080.85 294.967 1135.64 295.324Z" fill="white" fill-opacity="0.05"/>
<path d="M1121.5 391.117C1144.28 383.533 1170 399.341 1170 423.35V516.595C1170 534.268 1155.67 548.595 1138 548.595H32C14.3269 548.595 0 534.268 0 516.595V371.79C0 364.083 2.70093 356.554 8.13277 351.087C28.6394 330.446 54.9763 313.882 84.5984 303.656C136.88 285.634 198.458 287.756 248.805 309.311C299.348 330.952 336.497 369.787 384.747 394.851C453.237 430.428 543.243 434.789 616.148 406.061C656.79 390.048 692.967 364.366 737.111 357.503C805.943 346.807 870.76 384.13 938.024 400.409C998.24 414.985 1063.35 410.48 1121.5 391.117Z" fill="white" fill-opacity="0.03"/>
<path d="M1146.37 441.376C1159.45 442.009 1170 452.612 1170 465.709V518C1170 535.673 1155.67 550 1138 550H32C14.3269 550 0 535.673 0 518V459.873C0 446.352 8.46409 434.112 21.6333 431.052C57.6841 422.675 101.376 421.546 140.907 424.849C203.023 430.041 262.479 443.651 325.204 445.684C470.242 450.388 600.965 393.241 746.186 390.638C814.972 389.405 882.291 400.562 947.392 412.667C1012.49 424.773 1077.82 438.073 1146.37 441.376Z" fill="white" fill-opacity="0.01"/>
</svg>
